<svg width="291" height="60" viewBox="0 0 291 60" fill="none" xmlns="http://www.w3.org/2000/svg">
<path d="M60 30L30 60L0 30L30 0L60 30Z" fill="url(#paint0_linear_1_35)"/>
<path d="M18 31L24 29V54L18 48V31Z" fill="#D9D9D9"/>
<path d="M36 26L42 24V48L36 54V26Z" fill="#D9D9D9"/>
<path d="M27 22L33 20V57L30 60L27 57V22Z" fill="#D9D9D9"/>
<path d="M65.196 20.164L70.128 19.732V22.324C70.872 21.46 71.724 20.776 72.684 20.272C73.668 19.744 74.64 19.48 75.6 19.48C77.112 19.48 78.108 20.536 78.588 22.648C80.172 20.536 81.948 19.48 83.916 19.48C85.212 19.48 86.136 19.996 86.688 21.028C87.24 22.06 87.516 23.596 87.516 25.636V39.784L82.548 40.216V25.888C82.548 25.24 82.428 24.736 82.188 24.376C81.948 23.992 81.672 23.8 81.36 23.8C80.856 23.8 80.376 23.944 79.92 24.232C79.488 24.496 79.116 24.832 78.804 25.24V39.784L73.872 40.216V25.852C73.872 25.18 73.764 24.676 73.548 24.34C73.356 23.98 73.128 23.8 72.864 23.8C72.384 23.8 71.892 23.944 71.388 24.232C70.884 24.52 70.464 24.856 70.128 25.24V39.784L65.196 40.216V20.164ZM91.775 17.14V11.92L96.815 11.56V16.924L91.775 17.14ZM91.739 40.216V20.164L96.779 19.732V39.784L91.739 40.216ZM101.196 20.164L106.236 19.732V22.324C107.268 21.412 108.276 20.716 109.26 20.236C110.268 19.732 111.192 19.48 112.032 19.48C113.304 19.48 114.336 19.948 115.128 20.884C115.944 21.796 116.352 23.032 116.352 24.592V39.784L111.312 40.216V26.5C111.312 24.7 110.7 23.8 109.476 23.8C109.068 23.8 108.612 23.92 108.108 24.16C107.628 24.4 107.004 24.748 106.236 25.204V39.784L101.196 40.216V20.164ZM124.958 40.468C123.638 40.468 122.558 40.012 121.718 39.1C120.878 38.164 120.458 36.916 120.458 35.356V20.164L125.498 19.732V33.304C125.498 34.264 125.654 34.96 125.966 35.392C126.278 35.8 126.758 36.004 127.406 36.004C127.91 36.004 128.45 35.884 129.026 35.644C129.602 35.38 130.118 34.972 130.574 34.42V20.164L135.65 19.732V39.784L130.574 40.216V37.624C129.734 38.584 128.81 39.304 127.802 39.784C126.818 40.24 125.87 40.468 124.958 40.468ZM146.921 40.396C145.289 40.396 143.909 39.988 142.781 39.172C141.653 38.332 141.089 36.856 141.089 34.744V23.548H138.281L138.497 19.732H141.233L141.737 15.34L146.129 14.728V19.732H150.305L150.089 23.548H146.165V34.708C146.165 35.428 146.345 35.944 146.705 36.256C147.065 36.568 147.593 36.724 148.289 36.724C148.673 36.724 149.321 36.652 150.233 36.508V40C150.137 40.024 149.753 40.096 149.081 40.216C148.433 40.336 147.713 40.396 146.921 40.396ZM159.425 40.468C157.025 40.468 155.189 39.52 153.917 37.624C152.645 35.704 152.009 33.16 152.009 29.992C152.009 26.776 152.657 24.22 153.953 22.324C155.249 20.428 157.133 19.48 159.605 19.48C161.957 19.48 163.757 20.428 165.005 22.324C166.253 24.22 166.877 26.776 166.877 29.992C166.877 30.184 166.841 30.328 166.769 30.424C166.697 30.496 166.661 30.544 166.661 30.568H157.049C157.049 32.128 157.253 33.556 157.661 34.852C158.069 36.124 158.693 36.76 159.533 36.76C160.469 36.76 161.165 36.22 161.621 35.14C162.077 34.06 162.317 33.496 162.341 33.448L166.157 34.888C165.653 36.616 164.849 37.984 163.745 38.992C162.641 39.976 161.201 40.468 159.425 40.468ZM161.909 27.652C161.909 26.212 161.717 25.072 161.333 24.232C160.949 23.392 160.349 22.972 159.533 22.972C159.125 22.972 158.729 23.176 158.345 23.584C157.961 23.992 157.649 24.556 157.409 25.276C157.169 25.996 157.049 26.788 157.049 27.652H161.909Z" fill="white"/>
<path d="M176.19 40.468C174.654 40.468 173.334 39.988 172.23 39.028C171.15 38.068 170.334 36.796 169.782 35.212C169.23 33.628 168.954 31.912 168.954 30.064C168.954 28.24 169.218 26.524 169.746 24.916C170.298 23.308 171.126 22 172.23 20.992C173.334 19.984 174.69 19.48 176.298 19.48C177.522 19.48 178.614 19.792 179.574 20.416C180.558 21.016 181.326 21.868 181.878 22.972C182.43 24.076 182.73 25.336 182.778 26.752L177.99 26.968C177.99 26.872 177.942 26.488 177.846 25.816C177.774 25.144 177.594 24.592 177.306 24.16C177.042 23.728 176.694 23.512 176.262 23.512C175.302 23.512 174.69 24.172 174.426 25.492C174.162 26.788 174.03 28.252 174.03 29.884C174.03 31.492 174.162 32.956 174.426 34.276C174.714 35.572 175.374 36.22 176.406 36.22C177.702 36.22 178.374 34.948 178.422 32.404L182.67 32.872C182.358 35.368 181.734 37.264 180.798 38.56C179.862 39.832 178.326 40.468 176.19 40.468ZM185.958 13.648L190.998 13V22.324C193.062 20.428 194.994 19.48 196.794 19.48C198.066 19.48 199.098 19.948 199.89 20.884C200.706 21.796 201.114 23.032 201.114 24.592V39.784L196.074 40.216V26.428C196.074 25.54 195.906 24.88 195.57 24.448C195.258 24.016 194.838 23.8 194.31 23.8C193.878 23.8 193.422 23.908 192.942 24.124C192.462 24.34 191.814 24.688 190.998 25.168V39.784L185.958 40.216V13.648ZM208.676 40.468C207.812 40.468 207.032 40.204 206.336 39.676C205.64 39.124 205.1 38.392 204.716 37.48C204.332 36.544 204.14 35.5 204.14 34.348C204.14 31.732 205.028 29.896 206.804 28.84C208.604 27.76 210.692 27.148 213.068 27.004C213.068 25.708 212.984 24.748 212.816 24.124C212.648 23.5 212.24 23.188 211.592 23.188C211.04 23.188 210.62 23.404 210.332 23.836C210.044 24.268 209.864 24.82 209.792 25.492L204.86 24.628C205.1 22.78 205.856 21.46 207.128 20.668C208.4 19.876 209.888 19.48 211.592 19.48C213.776 19.48 215.408 20.056 216.488 21.208C217.592 22.36 218.144 23.86 218.144 25.708V36.184C218.144 37.312 218.324 38.512 218.684 39.784L213.752 40.216L213.176 37.732C212.744 38.5 212.108 39.148 211.268 39.676C210.428 40.204 209.564 40.468 208.676 40.468ZM211.016 36.868C211.424 36.868 211.76 36.772 212.024 36.58C212.312 36.388 212.66 36.076 213.068 35.644V30.028C211.868 30.028 210.908 30.352 210.188 31C209.468 31.648 209.108 32.656 209.108 34.024C209.108 34.936 209.264 35.644 209.576 36.148C209.912 36.628 210.392 36.868 211.016 36.868ZM222.309 20.164L227.349 19.732V23.008C228.069 21.976 228.957 21.148 230.013 20.524C231.093 19.876 232.461 19.552 234.117 19.552V24.484C233.253 24.484 232.113 24.64 230.697 24.952C229.305 25.24 228.189 25.756 227.349 26.5V39.784L222.309 40.216V20.164ZM243.776 40.396C242.144 40.396 240.764 39.988 239.636 39.172C238.508 38.332 237.944 36.856 237.944 34.744V23.548H235.136L235.352 19.732H238.088L238.592 15.34L242.984 14.728V19.732H247.16L246.944 23.548H243.02V34.708C243.02 35.428 243.2 35.944 243.56 36.256C243.92 36.568 244.448 36.724 245.144 36.724C245.528 36.724 246.176 36.652 247.088 36.508V40C246.992 40.024 246.608 40.096 245.936 40.216C245.288 40.336 244.568 40.396 243.776 40.396Z" fill="url(#paint1_linear_1_35)"/>
<defs>
<linearGradient id="paint0_linear_1_35" x1="0" y1="30" x2="60" y2="30" gradientUnits="userSpaceOnUse">
<stop stop-color="#A855F7"/>
<stop offset="1" stop-color="#0000FF"/>
</linearGradient>
<linearGradient id="paint1_linear_1_35" x1="63" y1="29.5" x2="291" y2="29.5" gradientUnits="userSpaceOnUse">
<stop stop-color="#0000FF"/>
<stop offset="1" stop-color="#A855F7"/>
</linearGradient>
</defs>
</svg>
