<svg width="170" height="60" viewBox="0 0 170 60" fill="none" xmlns="http://www.w3.org/2000/svg">
<path d="M60 30L30 60L0 30L30 0L60 30Z" fill="url(#paint0_linear_2001_4)"/>
<path d="M18 31L24 29V54L18 48V31Z" fill="#D9D9D9"/>
<path d="M36 26L42 24V48L36 54V26Z" fill="#D9D9D9"/>
<path d="M27 22L33 20V57L30 60L27 57V22Z" fill="#D9D9D9"/>
<path d="M78.12 40.216L70.236 23.332V39.784L65.52 40V13.216L71.028 13L78.012 29.056V13.432L82.476 13V39.784L78.12 40.216Z" fill="white"/>
<path d="M93.4678 40.468C91.9318 40.468 90.6118 39.988 89.5078 39.028C88.4278 38.068 87.6118 36.796 87.0598 35.212C86.5078 33.628 86.2318 31.912 86.2318 30.064C86.2318 28.24 86.4958 26.524 87.0238 24.916C87.5758 23.308 88.4038 22 89.5078 20.992C90.6118 19.984 91.9678 19.48 93.5758 19.48C94.7998 19.48 95.8918 19.792 96.8518 20.416C97.8358 21.016 98.6038 21.868 99.1558 22.972C99.7078 24.076 100.008 25.336 100.056 26.752L95.2678 26.968C95.2678 26.872 95.2198 26.488 95.1238 25.816C95.0518 25.144 94.8718 24.592 94.5838 24.16C94.3198 23.728 93.9718 23.512 93.5398 23.512C92.5798 23.512 91.9678 24.172 91.7038 25.492C91.4398 26.788 91.3078 28.252 91.3078 29.884C91.3078 31.492 91.4398 32.956 91.7038 34.276C91.9918 35.572 92.6518 36.22 93.6838 36.22C94.9798 36.22 95.6518 34.948 95.6998 32.404L99.9478 32.872C99.6358 35.368 99.0118 37.264 98.0758 38.56C97.1398 39.832 95.6038 40.468 93.4678 40.468ZM103.235 13.648L108.275 13V22.324C110.339 20.428 112.271 19.48 114.071 19.48C115.343 19.48 116.375 19.948 117.167 20.884C117.983 21.796 118.391 23.032 118.391 24.592V39.784L113.351 40.216V26.428C113.351 25.54 113.183 24.88 112.847 24.448C112.535 24.016 112.115 23.8 111.587 23.8C111.155 23.8 110.699 23.908 110.219 24.124C109.739 24.34 109.091 24.688 108.275 25.168V39.784L103.235 40.216V13.648ZM125.953 40.468C125.089 40.468 124.309 40.204 123.613 39.676C122.917 39.124 122.377 38.392 121.993 37.48C121.609 36.544 121.417 35.5 121.417 34.348C121.417 31.732 122.305 29.896 124.081 28.84C125.881 27.76 127.969 27.148 130.345 27.004C130.345 25.708 130.261 24.748 130.093 24.124C129.925 23.5 129.517 23.188 128.869 23.188C128.317 23.188 127.897 23.404 127.609 23.836C127.321 24.268 127.141 24.82 127.069 25.492L122.137 24.628C122.377 22.78 123.133 21.46 124.405 20.668C125.677 19.876 127.165 19.48 128.869 19.48C131.053 19.48 132.685 20.056 133.765 21.208C134.869 22.36 135.421 23.86 135.421 25.708V36.184C135.421 37.312 135.601 38.512 135.961 39.784L131.029 40.216L130.453 37.732C130.021 38.5 129.385 39.148 128.545 39.676C127.705 40.204 126.841 40.468 125.953 40.468ZM128.293 36.868C128.701 36.868 129.037 36.772 129.301 36.58C129.589 36.388 129.937 36.076 130.345 35.644V30.028C129.145 30.028 128.185 30.352 127.465 31C126.745 31.648 126.385 32.656 126.385 34.024C126.385 34.936 126.541 35.644 126.853 36.148C127.189 36.628 127.669 36.868 128.293 36.868ZM139.587 20.164L144.627 19.732V23.008C145.347 21.976 146.235 21.148 147.291 20.524C148.371 19.876 149.739 19.552 151.395 19.552V24.484C150.531 24.484 149.391 24.64 147.975 24.952C146.583 25.24 145.467 25.756 144.627 26.5V39.784L139.587 40.216V20.164ZM161.053 40.396C159.421 40.396 158.041 39.988 156.913 39.172C155.785 38.332 155.221 36.856 155.221 34.744V23.548H152.413L152.629 19.732H155.365L155.869 15.34L160.261 14.728V19.732H164.437L164.221 23.548H160.297V34.708C160.297 35.428 160.477 35.944 160.837 36.256C161.197 36.568 161.725 36.724 162.421 36.724C162.805 36.724 163.453 36.652 164.365 36.508V40C164.269 40.024 163.885 40.096 163.213 40.216C162.565 40.336 161.845 40.396 161.053 40.396Z" fill="url(#paint1_linear_2001_4)"/>
<defs>
<linearGradient id="paint0_linear_2001_4" x1="0" y1="30" x2="60" y2="30" gradientUnits="userSpaceOnUse">
<stop stop-color="#A855F7"/>
<stop offset="1" stop-color="#0000FF"/>
</linearGradient>
<linearGradient id="paint1_linear_2001_4" x1="63" y1="26.5" x2="170" y2="26.5" gradientUnits="userSpaceOnUse">
<stop stop-color="#0000FF"/>
<stop offset="1" stop-color="#A855F7"/>
</linearGradient>
</defs>
</svg>
