<svg width="170" height="60" viewBox="0 0 170 60" fill="none" xmlns="http://www.w3.org/2000/svg">
<path d="M60 30L30 60L0 30L30 0L60 30Z" fill="url(#paint0_linear_2001_4)"/>
<path d="M18 31L24 29V54L18 48V31Z" fill="#D9D9D9"/>
<path d="M36 26L42 24V48L36 54V26Z" fill="#D9D9D9"/>
<path d="M27 22L33 20V57L30 60L27 57V22Z" fill="#D9D9D9"/>
<path d="M65.196 20.164L70.236 19.732V22.324C71.268 21.412 72.276 20.716 73.26 20.236C74.268 19.732 75.192 19.48 76.032 19.48C77.304 19.48 78.336 19.948 79.128 20.884C79.944 21.796 80.352 23.032 80.352 24.592V39.784L75.312 40.216V26.5C75.312 24.7 74.7 23.8 73.476 23.8C73.068 23.8 72.612 23.92 72.108 24.16C71.628 24.4 71.004 24.748 70.236 25.204V39.784L65.196 40.216V20.164Z" fill="white"/>
<path d="M90.8663 40.468C89.3303 40.468 88.0103 39.988 86.9062 39.028C85.8263 38.068 85.0103 36.796 84.4583 35.212C83.9063 33.628 83.6303 31.912 83.6303 30.064C83.6303 28.24 83.8943 26.524 84.4223 24.916C84.9743 23.308 85.8023 22 86.9062 20.992C88.0103 19.984 89.3663 19.48 90.9743 19.48C92.1983 19.48 93.2903 19.792 94.2503 20.416C95.2343 21.016 96.0023 21.868 96.5543 22.972C97.1063 24.076 97.4063 25.336 97.4543 26.752L92.6663 26.968C92.6663 26.872 92.6183 26.488 92.5223 25.816C92.4503 25.144 92.2703 24.592 91.9823 24.16C91.7183 23.728 91.3703 23.512 90.9383 23.512C89.9783 23.512 89.3663 24.172 89.1023 25.492C88.8383 26.788 88.7063 28.252 88.7063 29.884C88.7063 31.492 88.8383 32.956 89.1023 34.276C89.3903 35.572 90.0503 36.22 91.0823 36.22C92.3783 36.22 93.0503 34.948 93.0983 32.404L97.3463 32.872C97.0343 35.368 96.4103 37.264 95.4743 38.56C94.5383 39.832 93.0023 40.468 90.8663 40.468ZM100.634 13.648L105.674 13V22.324C107.738 20.428 109.67 19.48 111.47 19.48C112.742 19.48 113.774 19.948 114.566 20.884C115.382 21.796 115.79 23.032 115.79 24.592V39.784L110.75 40.216V26.428C110.75 25.54 110.582 24.88 110.246 24.448C109.934 24.016 109.514 23.8 108.986 23.8C108.554 23.8 108.098 23.908 107.618 24.124C107.138 24.34 106.49 24.688 105.674 25.168V39.784L100.634 40.216V13.648ZM123.352 40.468C122.488 40.468 121.708 40.204 121.012 39.676C120.316 39.124 119.776 38.392 119.392 37.48C119.008 36.544 118.816 35.5 118.816 34.348C118.816 31.732 119.704 29.896 121.48 28.84C123.28 27.76 125.368 27.148 127.744 27.004C127.744 25.708 127.66 24.748 127.492 24.124C127.324 23.5 126.916 23.188 126.268 23.188C125.716 23.188 125.296 23.404 125.008 23.836C124.72 24.268 124.54 24.82 124.468 25.492L119.536 24.628C119.776 22.78 120.532 21.46 121.804 20.668C123.076 19.876 124.564 19.48 126.268 19.48C128.452 19.48 130.084 20.056 131.164 21.208C132.268 22.36 132.82 23.86 132.82 25.708V36.184C132.82 37.312 133 38.512 133.36 39.784L128.428 40.216L127.852 37.732C127.42 38.5 126.784 39.148 125.944 39.676C125.104 40.204 124.24 40.468 123.352 40.468ZM125.692 36.868C126.1 36.868 126.436 36.772 126.7 36.58C126.988 36.388 127.336 36.076 127.744 35.644V30.028C126.544 30.028 125.584 30.352 124.864 31C124.144 31.648 123.784 32.656 123.784 34.024C123.784 34.936 123.94 35.644 124.252 36.148C124.588 36.628 125.068 36.868 125.692 36.868ZM136.985 20.164L142.025 19.732V23.008C142.745 21.976 143.633 21.148 144.689 20.524C145.769 19.876 147.137 19.552 148.793 19.552V24.484C147.929 24.484 146.789 24.64 145.373 24.952C143.981 25.24 142.865 25.756 142.025 26.5V39.784L136.985 40.216V20.164ZM158.452 40.396C156.82 40.396 155.44 39.988 154.312 39.172C153.184 38.332 152.62 36.856 152.62 34.744V23.548H149.812L150.028 19.732H152.764L153.268 15.34L157.66 14.728V19.732H161.836L161.62 23.548H157.696V34.708C157.696 35.428 157.876 35.944 158.236 36.256C158.596 36.568 159.124 36.724 159.82 36.724C160.204 36.724 160.852 36.652 161.764 36.508V40C161.668 40.024 161.284 40.096 160.612 40.216C159.964 40.336 159.244 40.396 158.452 40.396Z" fill="url(#paint1_linear_2001_4)"/>
<defs>
<linearGradient id="paint0_linear_2001_4" x1="0" y1="30" x2="60" y2="30" gradientUnits="userSpaceOnUse">
<stop stop-color="#A855F7"/>
<stop offset="1" stop-color="#0000FF"/>
</linearGradient>
<linearGradient id="paint1_linear_2001_4" x1="63" y1="26.5" x2="170" y2="26.5" gradientUnits="userSpaceOnUse">
<stop stop-color="#0000FF"/>
<stop offset="1" stop-color="#A855F7"/>
</linearGradient>
</defs>
</svg>
