<svg width="291" height="60" viewBox="0 0 291 60" fill="none" xmlns="http://www.w3.org/2000/svg">
<path d="M60 30L30 60L0 30L30 0L60 30Z" fill="url(#paint0_linear_1_35)"/>
<path d="M18 31L24 29V54L18 48V31Z" fill="#D9D9D9"/>
<path d="M36 26L42 24V48L36 54V26Z" fill="#D9D9D9"/>
<path d="M27 22L33 20V57L30 60L27 57V22Z" fill="#D9D9D9"/>
<path d="M78.12 40.216L70.236 23.332V39.784L65.52 40V13.216L71.028 13L78.012 29.056V13.432L82.476 13V39.784L78.12 40.216Z" fill="white"/>
<path d="M94.0798 46.3C91.3918 46.3 89.3038 45.916 87.8158 45.148C86.3278 44.404 85.5838 43.372 85.5838 42.052C85.5838 41.14 85.9198 40.372 86.5918 39.748C87.2638 39.1 88.1158 38.584 89.1478 38.2C88.2358 37.936 87.5518 37.6 87.0958 37.192C86.6398 36.784 86.4118 36.196 86.4118 35.428C86.4118 34.492 86.7358 33.652 87.3838 32.908C88.0318 32.14 88.8838 31.504 89.9398 31C87.7798 29.752 86.6998 28.012 86.6998 25.78C86.6998 24.436 87.0598 23.296 87.7798 22.36C88.5238 21.4 89.4718 20.68 90.6238 20.2C91.7998 19.72 93.0238 19.48 94.2958 19.48C96.1918 19.48 97.8718 19.984 99.3358 20.992C100.056 20.344 100.776 19.804 101.496 19.372C102.24 18.94 103.164 18.724 104.268 18.724V22.072C102.876 22.072 101.808 22.24 101.064 22.576C101.352 23.32 101.544 23.908 101.64 24.34C101.76 24.772 101.82 25.24 101.82 25.744C101.82 27.376 101.268 28.804 100.164 30.028C99.0598 31.228 97.2598 31.828 94.7638 31.828L93.4318 31.792C93.2158 31.768 92.9518 31.756 92.6398 31.756C92.3278 31.852 92.0278 32.068 91.7398 32.404C91.4518 32.716 91.3078 33.052 91.3078 33.412C91.3078 33.748 91.4278 34.036 91.6678 34.276C91.9078 34.516 92.2078 34.66 92.5678 34.708L98.3278 35.356C101.664 35.74 103.332 37.36 103.332 40.216C103.332 42.448 102.468 44.02 100.74 44.932C99.0358 45.844 96.8158 46.3 94.0798 46.3ZM94.2238 28.948C94.9678 28.948 95.5438 28.672 95.9518 28.12C96.3598 27.544 96.5638 26.74 96.5638 25.708C96.5638 24.652 96.3478 23.86 95.9158 23.332C95.4838 22.804 94.9318 22.54 94.2598 22.54C93.5158 22.54 92.9278 22.84 92.4958 23.44C92.0638 24.04 91.8478 24.784 91.8478 25.672C91.8478 26.488 92.0278 27.244 92.3878 27.94C92.7478 28.612 93.3598 28.948 94.2238 28.948ZM94.2958 42.628C97.0318 42.628 98.3998 41.884 98.3998 40.396C98.3998 39.988 98.2918 39.688 98.0758 39.496C97.8598 39.304 97.5118 39.172 97.0318 39.1C96.5758 39.004 95.8198 38.92 94.7638 38.848L91.7758 38.596C91.3438 38.74 90.9718 39.004 90.6598 39.388C90.3478 39.748 90.1918 40.156 90.1918 40.612C90.1918 41.26 90.5278 41.752 91.1998 42.088C91.8958 42.448 92.9278 42.628 94.2958 42.628ZM106.364 20.164L111.404 19.732V23.008C112.124 21.976 113.012 21.148 114.068 20.524C115.148 19.876 116.516 19.552 118.172 19.552V24.484C117.308 24.484 116.168 24.64 114.752 24.952C113.36 25.24 112.244 25.756 111.404 26.5V39.784L106.364 40.216V20.164ZM124.231 40.468C123.367 40.468 122.587 40.204 121.891 39.676C121.195 39.124 120.655 38.392 120.271 37.48C119.887 36.544 119.695 35.5 119.695 34.348C119.695 31.732 120.583 29.896 122.359 28.84C124.159 27.76 126.247 27.148 128.623 27.004C128.623 25.708 128.539 24.748 128.371 24.124C128.203 23.5 127.795 23.188 127.147 23.188C126.595 23.188 126.175 23.404 125.887 23.836C125.599 24.268 125.419 24.82 125.347 25.492L120.415 24.628C120.655 22.78 121.411 21.46 122.683 20.668C123.955 19.876 125.443 19.48 127.147 19.48C129.331 19.48 130.963 20.056 132.043 21.208C133.147 22.36 133.699 23.86 133.699 25.708V36.184C133.699 37.312 133.879 38.512 134.239 39.784L129.307 40.216L128.731 37.732C128.299 38.5 127.663 39.148 126.823 39.676C125.983 40.204 125.119 40.468 124.231 40.468ZM126.571 36.868C126.979 36.868 127.315 36.772 127.579 36.58C127.867 36.388 128.215 36.076 128.623 35.644V30.028C127.423 30.028 126.463 30.352 125.743 31C125.023 31.648 124.663 32.656 124.663 34.024C124.663 34.936 124.819 35.644 125.131 36.148C125.467 36.628 125.947 36.868 126.571 36.868ZM137.864 20.164L142.904 19.732V21.712C143.696 20.92 144.428 20.356 145.1 20.02C145.796 19.66 146.6 19.48 147.512 19.48C148.76 19.48 149.744 19.828 150.464 20.524C151.208 21.22 151.736 22.312 152.048 23.8C152.384 25.264 152.552 27.232 152.552 29.704C152.552 33.088 152.156 35.728 151.364 37.624C150.596 39.52 149.108 40.468 146.9 40.468C145.892 40.468 145.088 40.276 144.488 39.892C143.888 39.508 143.36 38.968 142.904 38.272V45.292L137.864 46.3V20.164ZM145.1 36.616C145.892 36.616 146.48 36.148 146.864 35.212C147.272 34.276 147.476 32.512 147.476 29.92C147.476 27.448 147.272 25.696 146.864 24.664C146.48 23.632 145.88 23.116 145.064 23.116C144.224 23.116 143.504 23.584 142.904 24.52V34.996C143.384 36.076 144.116 36.616 145.1 36.616ZM156.04 13.648L161.08 13V22.324C163.144 20.428 165.076 19.48 166.876 19.48C168.148 19.48 169.18 19.948 169.972 20.884C170.788 21.796 171.196 23.032 171.196 24.592V39.784L166.156 40.216V26.428C166.156 25.54 165.988 24.88 165.652 24.448C165.34 24.016 164.92 23.8 164.392 23.8C163.96 23.8 163.504 23.908 163.024 24.124C162.544 24.34 161.896 24.688 161.08 25.168V39.784L156.04 40.216V13.648Z" fill="url(#paint1_linear_1_35)"/>
<defs>
<linearGradient id="paint0_linear_1_35" x1="0" y1="30" x2="60" y2="30" gradientUnits="userSpaceOnUse">
<stop stop-color="#A855F7"/>
<stop offset="1" stop-color="#0000FF"/>
</linearGradient>
<linearGradient id="paint1_linear_1_35" x1="63" y1="29.5" x2="291" y2="29.5" gradientUnits="userSpaceOnUse">
<stop stop-color="#0000FF"/>
<stop offset="0.697115" stop-color="#A855F7"/>
</linearGradient>
</defs>
</svg>
